<svg xmlns="http://www.w3.org/2000/svg" viewBox="0 0 32 32" width="32" height="32" role="img" aria-label="Fish head mark">
  <style>.ink{fill:#1d4ed8}@media(prefers-color-scheme:dark){.ink{fill:#7dd3fc}}</style>
  <path class="ink" fill="#1d4ed8" fill-rule="evenodd" d="M5.9 4.9c9.1-.6 18.9 3.8 23.6 11.1-4.7 7.3-14.5 11.7-23.6 11.1-1.1-.1-1.8-1.2-1.4-2.2 2.2-5.6 2.2-12.2 0-17.8-.4-1 .3-2.1 1.4-2.2z m4.5 4.3c1.6 4.4 1.6 9.2 0 13.6l-1.8-.6c1.5-4.2 1.5-8.2 0-12.4z m4.4 1.3c1.4 3.9 1.4 8.2 0 12.1l-1.8-.6c1.3-3.7 1.3-7.2 0-10.9z m7 1.1a4.3 4.3 0 1 0 0 8.6 4.3 4.3 0 0 0 0-8.6z"/>
  <circle class="ink" fill="#1d4ed8" cx="21.8" cy="16" r="1.8"/>
</svg>
